<svg width="239" height="23" viewBox="0 0 239 23" fill="none" xmlns="http://www.w3.org/2000/svg">
<path d="M8.00488 13.7822H3.87402V22H0.167969V0.671875H7.66797C10.1289 0.671875 12.0283 1.22363 13.3662 2.32715C14.7041 3.43066 15.373 5.02734 15.373 7.11719C15.373 8.54297 15.0264 9.73926 14.333 10.7061C13.6494 11.6631 12.6924 12.4004 11.4619 12.918L16.252 21.8096V22H12.2822L8.00488 13.7822ZM3.87402 10.8086H7.68262C8.93262 10.8086 9.90918 10.4961 10.6123 9.87109C11.3154 9.23633 11.667 8.37207 11.667 7.27832C11.667 6.13574 11.3398 5.25195 10.6855 4.62695C10.041 4.00195 9.07422 3.67969 7.78516 3.66016H3.87402V10.8086ZM31.3545 12.4785H22.5947V19.041H32.834V22H18.8887V0.671875H32.7314V3.66016H22.5947V9.54883H31.3545V12.4785ZM46.999 16.5068C46.999 15.5693 46.667 14.8467 46.0029 14.3389C45.3486 13.8311 44.1621 13.3184 42.4434 12.8008C40.7246 12.2832 39.3574 11.707 38.3418 11.0723C36.3984 9.85156 35.4268 8.25977 35.4268 6.29688C35.4268 4.57813 36.125 3.16211 37.5215 2.04883C38.9277 0.935547 40.749 0.378906 42.9854 0.378906C44.4697 0.378906 45.793 0.652344 46.9551 1.19922C48.1172 1.74609 49.0303 2.52734 49.6943 3.54297C50.3584 4.54883 50.6904 5.66699 50.6904 6.89746H46.999C46.999 5.78418 46.6475 4.91504 45.9443 4.29004C45.251 3.65527 44.2549 3.33789 42.9561 3.33789C41.7451 3.33789 40.8027 3.59668 40.1289 4.11426C39.4648 4.63184 39.1328 5.35449 39.1328 6.28223C39.1328 7.06348 39.4941 7.71777 40.2168 8.24512C40.9395 8.7627 42.1309 9.27051 43.791 9.76855C45.4512 10.2568 46.7842 10.8184 47.79 11.4531C48.7959 12.0781 49.5332 12.8008 50.002 13.6211C50.4707 14.4316 50.7051 15.3838 50.7051 16.4775C50.7051 18.2549 50.0215 19.6709 48.6543 20.7256C47.2969 21.7705 45.4512 22.293 43.1172 22.293C41.5742 22.293 40.1533 22.0098 38.8545 21.4434C37.5654 20.8672 36.5596 20.0762 35.8369 19.0703C35.124 18.0645 34.7676 16.8926 34.7676 15.5547H38.4736C38.4736 16.7656 38.874 17.7031 39.6748 18.3672C40.4756 19.0312 41.623 19.3633 43.1172 19.3633C44.4062 19.3633 45.373 19.1045 46.0176 18.5869C46.6719 18.0596 46.999 17.3662 46.999 16.5068ZM70.9785 11.8926C70.9785 13.9824 70.6172 15.8184 69.8945 17.4004C69.1719 18.9727 68.1367 20.1836 66.7891 21.0332C65.4512 21.873 63.9082 22.293 62.1602 22.293C60.4316 22.293 58.8887 21.873 57.5312 21.0332C56.1836 20.1836 55.1387 18.9775 54.3965 17.415C53.6641 15.8525 53.293 14.0508 53.2832 12.0098V10.8086C53.2832 8.72852 53.6494 6.89258 54.3818 5.30078C55.124 3.70898 56.1641 2.49316 57.502 1.65332C58.8496 0.803711 60.3926 0.378906 62.1309 0.378906C63.8691 0.378906 65.4072 0.798828 66.7451 1.63867C68.0928 2.46875 69.1328 3.66992 69.8652 5.24219C70.5977 6.80469 70.9688 8.62598 70.9785 10.7061V11.8926ZM67.2725 10.7793C67.2725 8.41602 66.8232 6.60449 65.9248 5.34473C65.0361 4.08496 63.7715 3.45508 62.1309 3.45508C60.5293 3.45508 59.2744 4.08496 58.3662 5.34473C57.4678 6.59473 57.0088 8.36719 56.9893 10.6621V11.8926C56.9893 14.2363 57.4434 16.0479 58.3516 17.3271C59.2695 18.6064 60.5391 19.2461 62.1602 19.2461C63.8008 19.2461 65.0605 18.6211 65.9395 17.3711C66.8281 16.1211 67.2725 14.2949 67.2725 11.8926V10.7793ZM78.376 19.041H88.0586V22H74.6699V0.671875H78.376V19.041ZM95.3975 17.3564L100.817 0.671875H104.89L97.2139 22H93.625L85.9785 0.671875H90.0361L95.3975 17.3564ZM119.772 12.4785H111.013V19.041H121.252V22H107.307V0.671875H121.149V3.66016H111.013V9.54883H119.772V12.4785ZM131.74 22V0.671875H138.039C139.924 0.671875 141.594 1.0918 143.049 1.93164C144.514 2.77148 145.646 3.96289 146.447 5.50586C147.248 7.04883 147.648 8.81641 147.648 10.8086V11.8779C147.648 13.8994 147.243 15.6768 146.433 17.21C145.632 18.7432 144.484 19.9248 142.99 20.7549C141.506 21.585 139.802 22 137.878 22H131.74ZM135.446 3.66016V19.041H137.863C139.807 19.041 141.296 18.4355 142.331 17.2246C143.376 16.0039 143.908 14.2559 143.928 11.9805V10.7939C143.928 8.47949 143.425 6.71191 142.419 5.49121C141.413 4.27051 139.953 3.66016 138.039 3.66016H135.446ZM155.251 22H151.56V0.671875H155.251V22ZM176.154 19.2314C175.383 20.2373 174.313 20.999 172.946 21.5166C171.579 22.0342 170.026 22.293 168.288 22.293C166.501 22.293 164.919 21.8877 163.542 21.0771C162.165 20.2666 161.101 19.1094 160.349 17.6055C159.606 16.0918 159.221 14.3291 159.191 12.3174V10.6475C159.191 7.4248 159.963 4.91016 161.506 3.10352C163.049 1.28711 165.202 0.378906 167.966 0.378906C170.339 0.378906 172.224 0.964844 173.62 2.13672C175.017 3.30859 175.856 4.99805 176.14 7.20508H172.507C172.097 4.63672 170.607 3.35254 168.039 3.35254C166.379 3.35254 165.114 3.95312 164.245 5.1543C163.386 6.3457 162.941 8.09863 162.912 10.4131V12.0537C162.912 14.3584 163.396 16.1504 164.362 17.4297C165.339 18.6992 166.691 19.334 168.42 19.334C170.314 19.334 171.662 18.9043 172.463 18.0449V13.8701H168.068V11.0576H176.154V19.2314ZM184.138 22H180.446V0.671875H184.138V22ZM203.664 3.66016H197.014V22H193.337V3.66016H186.745V0.671875H203.664V3.66016ZM216.657 17.0342H208.396L206.667 22H202.814L210.871 0.671875H214.196L222.268 22H218.4L216.657 17.0342ZM209.436 14.0459H215.617L212.526 5.19824L209.436 14.0459ZM228.405 19.041H238.088V22H224.699V0.671875H228.405V19.041Z" fill="#001AA5"/>
</svg>
